<?xml version="1.0" standalone="no"?>
<svg xmlns="http://www.w3.org/2000/svg" viewBox="0 0 74 77" width="74" height="77"><g fill="#305699" color="#305699" transform="translate(14.768 0) scale(0.44) "><svg width="100.0" height="100.0" x="0.0" y="0.0" viewBox="0 0 100 100"><g><path d="M29.823,30.858c-2.18,2.181-2.18,5.717,0,7.896c2.186,2.188,5.718,2.188,7.901,0c2.182-2.18,2.182-5.716,0-7.896   C35.541,28.678,32.009,28.678,29.823,30.858z"></path><path d="M50,0C22.387,0,0,22.39,0,49.999C0,77.616,22.387,100,50,100c27.614,0,50-22.384,50-50.001C100,22.39,77.614,0,50,0z    M53.529,86.164l-33.58-33.581V32.831l11.848-11.848H51.55l33.584,33.58L53.529,86.164z"></path></g></svg></g><path fill="#0b005d" fill-rule="nonzero" d="M7.14 2.92L7.14 15.95Q6.57 15.88 4.24 15.88L4.24 15.88L3.87 15.88L3.87 2.92L1.55 2.92Q0.52 2.92 0.33 3.02Q0.14 3.13 0.04 3.21L0.04 3.21L0 3.20L0 0.20L0.04 0.16Q0.42 0.29 2.12 0.29L2.12 0.29L9.47 0.29Q10.50 0.29 10.69 0.19Q10.88 0.08 10.98 0L10.98 0L11.02 0.01L11.02 3.01L10.98 3.05Q10.59 2.92 8.89 2.92L8.89 2.92L7.14 2.92ZM21.33 15.15L21.33 15.15Q19.66 16.05 18.32 16.05Q16.97 16.05 16.01 15.80Q15.05 15.55 14.38 15.06L14.38 15.06Q13.02 14.06 13.02 12.18L13.02 12.18Q13.02 10.49 14.68 9.36L14.68 9.36Q16.49 8.14 19.58 8.14L19.58 8.14L20.05 8.16Q20.19 8.17 20.37 8.17Q20.54 8.18 20.68 8.20L20.68 8.20Q20.59 6.33 19.07 6.01L19.07 6.01Q18.56 5.91 17.99 5.91Q17.43 5.91 16.88 6.01Q16.34 6.11 15.82 6.27L15.82 6.27Q14.68 6.63 14.19 7.10L14.19 7.10L14.16 7.08L13.80 4.49Q15.88 3.40 18.34 3.40L18.34 3.40Q22.16 3.40 23.23 6.15L23.23 6.15Q23.57 7.03 23.57 8.13L23.57 8.13L23.57 12.38Q23.57 13.73 24.53 14.23L24.53 14.23L22.41 16.17Q21.74 15.82 21.33 15.15ZM20.70 12.76L20.70 10.31Q20.38 10.25 20.04 10.25L20.04 10.25L19.57 10.25Q16.98 10.25 16.28 11.40L16.28 11.40Q16.07 11.74 16.07 12.12Q16.07 12.49 16.20 12.78Q16.34 13.07 16.65 13.25L16.65 13.25Q17.26 13.61 18.46 13.61Q19.66 13.61 20.71 13.03L20.71 13.03Q20.70 12.90 20.70 12.76L20.70 12.76ZM30.38 12.62L30.38 12.62Q29.94 13.20 29.94 13.53Q29.94 13.86 30.05 14.04Q30.15 14.23 30.50 14.39L30.50 14.39Q31.28 14.75 33.05 15.03Q34.82 15.30 35.82 15.71Q36.82 16.13 37.44 16.72L37.44 16.72Q38.60 17.86 38.60 19.95Q38.60 22.03 37.14 23.15Q35.67 24.27 32.79 24.27L32.79 24.27Q29.88 24.27 28.10 23.00L28.10 23.00Q26.32 21.74 26.27 19.64L26.27 19.64Q26.20 17.20 28.18 16.11L28.18 16.11Q27.64 15.67 27.46 15.06Q27.28 14.46 27.28 13.69L27.28 13.69Q27.28 12.39 28.42 11.48L28.42 11.48Q27.09 10.23 27.09 8.37L27.09 8.37Q27.09 6.28 28.59 4.88L28.59 4.88Q30.18 3.40 32.70 3.40L32.70 3.40Q34.02 3.40 35.18 3.89L35.18 3.89Q36.70 3.25 37.42 2.76Q38.13 2.27 38.33 2.05L38.33 2.05L38.40 2.06Q38.51 2.34 38.65 2.86L38.65 2.86L38.86 3.70Q39.14 4.75 39.20 5.13L39.20 5.13Q38.68 5.70 37.38 5.93L37.38 5.93Q37.89 6.90 37.89 7.99Q37.89 9.08 37.51 9.97Q37.14 10.85 36.45 11.52L36.45 11.52Q34.91 12.96 32.53 12.96L32.53 12.96Q31.37 12.96 30.38 12.62ZM30.07 7.35L30.07 7.35Q29.91 7.77 29.91 8.20Q29.91 8.64 30.09 9.04Q30.27 9.43 30.62 9.75L30.62 9.75Q31.41 10.45 32.67 10.45L32.67 10.45Q33.63 10.45 34.34 9.81L34.34 9.81Q35.07 9.11 35.07 8.12Q35.07 7.13 34.41 6.52Q33.74 5.91 32.57 5.91L32.57 5.91Q30.63 5.91 30.07 7.35ZM32.94 21.79L32.94 21.79Q35.82 21.79 35.82 19.77L35.82 19.77Q35.82 18.81 34.89 18.22L34.89 18.22Q33.83 17.55 31.27 17.18L31.27 17.18L30.66 17.07Q29.88 17.48 29.52 18.13Q29.16 18.77 29.16 19.35Q29.17 19.93 29.44 20.36Q29.71 20.78 30.19 21.09L30.19 21.09Q31.25 21.79 32.94 21.79ZM49.29 15.15L49.29 15.15Q47.63 16.05 46.28 16.05Q44.93 16.05 43.97 15.80Q43.01 15.55 42.34 15.06L42.34 15.06Q40.98 14.06 40.98 12.18L40.98 12.18Q40.98 10.49 42.64 9.36L42.64 9.36Q44.45 8.14 47.54 8.14L47.54 8.14L48.01 8.16Q48.15 8.17 48.33 8.17Q48.50 8.18 48.64 8.20L48.64 8.20Q48.55 6.33 47.03 6.01L47.03 6.01Q46.52 5.91 45.96 5.91Q45.39 5.91 44.84 6.01Q44.30 6.11 43.78 6.27L43.78 6.27Q42.64 6.63 42.15 7.10L42.15 7.10L42.12 7.08L41.77 4.49Q43.84 3.40 46.30 3.40L46.30 3.40Q50.12 3.40 51.19 6.15L51.19 6.15Q51.53 7.03 51.53 8.13L51.53 8.13L51.53 12.38Q51.53 13.73 52.49 14.23L52.49 14.23L50.37 16.17Q49.70 15.82 49.29 15.15ZM48.66 12.76L48.66 10.31Q48.34 10.25 48 10.25L48 10.25L47.53 10.25Q44.94 10.25 44.24 11.40L44.24 11.40Q44.03 11.74 44.03 12.12Q44.03 12.49 44.16 12.78Q44.30 13.07 44.61 13.25L44.61 13.25Q45.22 13.61 46.42 13.61Q47.63 13.61 48.67 13.03L48.67 13.03Q48.66 12.90 48.66 12.76L48.66 12.76ZM57.95 7.35L57.95 14.57Q57.95 15.57 58.00 15.88L58.00 15.88L55.08 15.88L55.08 3.63L57.95 3.63L57.95 4.54Q58.95 3.40 60.04 3.40Q61.14 3.40 61.77 3.67L61.77 3.67L61.56 6.82L61.51 6.86Q61.10 6.13 59.81 6.13L59.81 6.13Q59.32 6.13 58.81 6.46Q58.30 6.80 57.95 7.35L57.95 7.35ZM70.54 15.88L70.54 14.81Q69.04 16.05 67.27 16.05L67.27 16.05Q65.37 16.05 64.29 14.78L64.29 14.78Q63.26 13.54 63.26 11.37L63.26 11.37L63.26 6.71Q63.26 4.37 63.16 4.03Q63.06 3.68 63.01 3.59L63.01 3.59Q63.55 3.63 64.14 3.63L64.14 3.63L65.11 3.63Q65.50 3.63 66.13 3.60L66.13 3.60L66.13 10.38Q66.13 12.80 67.44 13.18L67.44 13.18Q67.84 13.30 68.31 13.30L68.31 13.30Q69.69 13.30 70.54 12.29L70.54 12.29L70.54 3.63L73.44 3.63L73.44 14.38Q73.44 15.41 73.54 15.88L73.54 15.88L70.54 15.88Z" transform="translate(0, 52)"></path></svg>